<?xml version="1.0" standalone="no"?>
<!DOCTYPE svg PUBLIC "-//W3C//DTD SVG 1.1//EN" "http://www.w3.org/Graphics/SVG/1.1/DTD/svg11.dtd">
<svg width="100%" height="100%" viewBox="0 0 1750 400" version="1.1" xmlns="http://www.w3.org/2000/svg" xmlns:xlink="http://www.w3.org/1999/xlink" xml:space="preserve" style="fill-rule:evenodd;clip-rule:evenodd;stroke-linecap:round;stroke-linejoin:round;stroke-miterlimit:1.41421;">
    <g transform="matrix(1,0,0,1,-266.724,-50)">
        <g id="Layer1">
            <g>
                <g transform="matrix(1,0,0,1,-27.6469,10.2167)">
                    <g transform="matrix(0.410588,0,0,0.410588,269.764,41.706)">
                        <g transform="matrix(2.09264,0,0,2.09264,-754.566,-719.309)">
                            <circle cx="599.512" cy="582.665" r="163.724" style="fill:none;stroke-width:7.17px;stroke:white;"/>
                        </g>
                        <g transform="matrix(1.87599,0,0,1.87599,-624.678,-593.072)">
                            <circle cx="599.512" cy="582.665" r="163.724" style="fill:none;stroke-width:7.55px;stroke:white;"/>
                        </g>
                        <g transform="matrix(1.66443,0,0,1.66443,-497.846,-469.804)">
                            <circle cx="599.512" cy="582.665" r="163.724" style="fill:none;stroke-width:8.01px;stroke:white;"/>
                        </g>
                        <g transform="matrix(1.50385,0,0,1.50385,-401.576,-376.239)">
                            <circle cx="599.512" cy="582.665" r="163.724" style="fill:none;stroke-width:8.31px;stroke:white;"/>
                        </g>
                        <g transform="matrix(1.34837,0,0,1.34837,-308.362,-285.645)">
                            <circle cx="599.512" cy="582.665" r="163.724" style="fill:none;stroke-width:8.65px;stroke:white;"/>
                        </g>
                        <g transform="matrix(1.22092,0,0,1.22092,-231.957,-211.388)">
                            <circle cx="599.512" cy="582.665" r="163.724" style="fill:none;stroke-width:8.87px;stroke:white;"/>
                        </g>
                        <g transform="matrix(1.09373,0,0,1.09373,-155.705,-137.279)">
                            <circle cx="599.512" cy="582.665" r="163.724" style="fill:none;stroke-width:9.14px;stroke:white;"/>
                        </g>
                        <g transform="matrix(0.976227,0,0,0.976227,-85.2602,-68.813)">
                            <circle cx="599.512" cy="582.665" r="163.724" style="fill:none;stroke-width:9.39px;stroke:white;"/>
                        </g>
                        <g transform="matrix(1.03995,0,0,1.03995,-14.1325,-21.6441)">
                            <path d="M494.382,468.7C512.543,468.7 527.287,483.444 527.287,501.605C527.287,519.766 512.543,534.51 494.382,534.51C476.221,534.51 461.477,519.766 461.477,501.605C461.477,483.444 476.221,468.7 494.382,468.7ZM494.382,485.152C503.462,485.152 510.835,492.525 510.835,501.605C510.835,510.686 503.462,518.058 494.382,518.058C485.302,518.058 477.929,510.686 477.929,501.605C477.929,492.525 485.302,485.152 494.382,485.152Z" style="fill:white;stroke-width:8.81px;stroke:white;"/>
                        </g>
                        <g transform="matrix(0.504681,0,0,1.68992,261.431,-330.04)">
                            <path d="M472.713,426.966C487.773,426.966 500,455.736 500,491.172C500,526.608 487.773,555.377 472.713,555.377C457.652,555.377 445.425,526.608 445.425,491.172C445.425,455.736 457.652,426.966 472.713,426.966ZM472.713,459.843C480.061,459.843 486.028,473.881 486.028,491.172C486.028,508.463 480.061,522.501 472.713,522.501C465.364,522.501 459.398,508.463 459.398,491.172C459.398,473.881 465.364,459.843 472.713,459.843Z" style="fill:none;stroke-width:7.35px;stroke:white;"/>
                        </g>
                        <g transform="matrix(1.28719,0,0,1,-139.111,-2.42515)">
                            <ellipse cx="496.518" cy="502.425" rx="3.482" ry="17.938" style="fill:rgb(90,236,184);stroke-width:0.87px;stroke:white;"/>
                        </g>
                    </g>
                    <g transform="matrix(6.86241,0,0,6.11321,-2238.18,-1026.53)">
                        <path d="M445.374,189.472C436.524,189.472 429.724,196.772 429.724,207.522C429.724,218.772 436.124,225.372 444.674,225.372C452.924,225.372 457.174,220.272 458.474,213.822L458.574,213.322L457.474,213.322L457.374,213.822C456.174,219.722 452.174,224.322 444.774,224.322C437.374,224.322 430.924,218.922 430.924,207.472C430.924,196.422 437.974,190.522 445.174,190.522C452.024,190.522 456.124,194.822 457.274,200.472L457.374,200.972L458.474,200.972L458.374,200.472C457.124,194.272 452.924,189.472 445.374,189.472Z" style="fill:white;fill-rule:nonzero;"/>
                        <path d="M475.524,210.572L487.824,190.172L486.474,190.172L475.024,209.422L463.474,190.172L462.174,190.172L474.424,210.572L474.424,224.672L475.524,224.672L475.524,210.572Z" style="fill:white;fill-rule:nonzero;"/>
                        <path d="M506.474,189.472C497.624,189.472 490.824,196.772 490.824,207.522C490.824,218.772 497.224,225.372 505.774,225.372C514.024,225.372 518.274,220.272 519.574,213.822L519.674,213.322L518.574,213.322L518.474,213.822C517.274,219.722 513.274,224.322 505.874,224.322C498.474,224.322 492.024,218.922 492.024,207.472C492.024,196.422 499.074,190.522 506.274,190.522C513.124,190.522 517.224,194.822 518.374,200.472L518.474,200.972L519.574,200.972L519.474,200.472C518.224,194.272 514.024,189.472 506.474,189.472Z" style="fill:white;fill-rule:nonzero;"/>
                        <path d="M548.374,223.672L528.024,223.672L528.024,190.172L526.924,190.172L526.924,224.672L548.374,224.672L548.374,223.672Z" style="fill:white;fill-rule:nonzero;"/>
                        <path d="M575.324,223.672L554.974,223.672L554.974,207.922L573.824,207.922L573.824,206.922L554.974,206.922L554.974,191.172L574.824,191.172L574.824,190.172L553.874,190.172L553.874,224.672L575.324,224.672L575.324,223.672Z" style="fill:white;fill-rule:nonzero;"/>
                    </g>
                </g>
                <g transform="matrix(1,0,0,1,150,64)">
                    <path d="M1574.91,327.732L1580.11,341.182L1581.31,341.182L1567.96,306.682L1566.51,306.682L1553.16,341.182L1554.31,341.182L1559.46,327.732L1574.91,327.732ZM1559.86,326.682L1567.21,307.632L1574.46,326.682L1559.86,326.682Z" style="fill:white;fill-rule:nonzero;stroke-width:1.67px;stroke-linecap:butt;stroke:white;"/>
                    <path d="M1608.41,340.182L1588.06,340.182L1588.06,306.682L1586.96,306.682L1586.96,341.182L1608.41,341.182L1608.41,340.182Z" style="fill:white;fill-rule:nonzero;stroke-width:1.67px;stroke-linecap:butt;stroke:white;"/>
                    <path d="M1626.51,306.932C1624.91,306.732 1623.31,306.682 1621.56,306.682L1613.91,306.682L1613.91,341.182L1615.01,341.182L1615.01,325.782L1621.56,325.782C1623.31,325.782 1624.91,325.732 1626.51,325.532C1631.16,324.932 1634.86,321.982 1634.86,315.982C1634.86,310.132 1631.16,307.532 1626.51,306.932ZM1626.31,324.482C1624.71,324.682 1623.36,324.732 1621.56,324.732L1615.01,324.732L1615.01,307.732L1621.56,307.732C1623.36,307.732 1624.71,307.782 1626.31,307.982C1630.51,308.482 1633.66,310.832 1633.66,315.982C1633.66,321.432 1630.51,323.982 1626.31,324.482Z" style="fill:white;fill-rule:nonzero;stroke-width:1.67px;stroke-linecap:butt;stroke:white;"/>
                    <path d="M1664.36,306.682L1663.26,306.682L1663.26,323.732L1641.06,323.732L1641.06,306.682L1639.96,306.682L1639.96,341.182L1641.06,341.182L1641.06,324.782L1663.26,324.782L1663.26,341.182L1664.36,341.182L1664.36,306.682Z" style="fill:white;fill-rule:nonzero;stroke-width:1.67px;stroke-linecap:butt;stroke:white;"/>
                    <path d="M1691.46,327.732L1696.66,341.182L1697.86,341.182L1684.51,306.682L1683.06,306.682L1669.71,341.182L1670.86,341.182L1676.01,327.732L1691.46,327.732ZM1676.41,326.682L1683.76,307.632L1691.01,326.682L1676.41,326.682Z" style="fill:white;fill-rule:nonzero;stroke-width:1.67px;stroke-linecap:butt;stroke:white;"/>
                </g>
            </g>
        </g>
    </g>
</svg>
