<?xml version="1.0" standalone="no"?>
<!DOCTYPE svg PUBLIC "-//W3C//DTD SVG 1.1//EN" "http://www.w3.org/Graphics/SVG/1.1/DTD/svg11.dtd">
<svg width="100%" height="100%" viewBox="0 0 800 1000" version="1.1" xmlns="http://www.w3.org/2000/svg" xmlns:xlink="http://www.w3.org/1999/xlink" xml:space="preserve" style="fill-rule:evenodd;clip-rule:evenodd;stroke-linejoin:round;stroke-miterlimit:1.41421;">
    <g id="Layer1" transform="matrix(1,0,0,1,-100,0)">
        <g transform="matrix(1.29614,0,0,1.44325,-113.4,-303.891)">
            <rect x="227" y="231" width="488" height="652" style="fill:black;"/>
        </g>
        <g transform="matrix(1.29614,0,0,1.29614,-150.988,-196.029)">
            <g transform="matrix(1.08696,0,0,1.08696,-194.304,-458.522)">
                <circle cx="440.5" cy="638.5" r="11.5" style="fill:rgb(3,205,199);"/>
            </g>
            <g transform="matrix(1.08696,0,0,1.08696,-194.304,-372.522)">
                <circle cx="440.5" cy="638.5" r="11.5" style="fill:rgb(3,205,199);"/>
            </g>
            <g transform="matrix(1.08696,0,0,1.08696,-194.304,-284.522)">
                <circle cx="440.5" cy="638.5" r="11.5" style="fill:rgb(3,205,199);"/>
            </g>
            <g transform="matrix(1.08696,0,0,1.08696,-194.304,-198.522)">
                <circle cx="440.5" cy="638.5" r="11.5" style="fill:rgb(3,205,199);"/>
            </g>
            <g transform="matrix(1.08696,0,0,1.08696,-194.304,-115.522)">
                <circle cx="440.5" cy="638.5" r="11.5" style="fill:rgb(3,205,199);"/>
            </g>
            <g transform="matrix(1.08696,0,0,1.08696,-194.304,-29.5217)">
                <circle cx="440.5" cy="638.5" r="11.5" style="fill:rgb(3,205,199);"/>
            </g>
            <g transform="matrix(1.08696,0,0,1.08696,-194.304,58.4783)">
                <circle cx="440.5" cy="638.5" r="11.5" style="fill:rgb(3,205,199);"/>
            </g>
            <g transform="matrix(1.08696,0,0,1.08696,-194.304,144.478)">
                <circle cx="440.5" cy="638.5" r="11.5" style="fill:rgb(3,205,199);"/>
            </g>
        </g>
        <g transform="matrix(1.29614,0,0,1.29614,-150.988,-196.029)">
            <g transform="matrix(0.612245,0,0,1,193.765,-3)">
                <path d="M158,238.5C158,233.257 151.047,229 142.483,229L75.517,229C66.953,229 60,233.257 60,238.5C60,243.743 66.953,248 75.517,248L142.483,248C151.047,248 158,243.743 158,238.5Z" style="fill:black;"/>
            </g>
            <g transform="matrix(0.612245,0,0,1,193.765,83)">
                <path d="M158,238.5C158,233.257 151.047,229 142.483,229L75.517,229C66.953,229 60,233.257 60,238.5C60,243.743 66.953,248 75.517,248L142.483,248C151.047,248 158,243.743 158,238.5Z" style="fill:black;"/>
            </g>
            <g transform="matrix(0.612245,0,0,1,193.765,171)">
                <path d="M158,238.5C158,233.257 151.047,229 142.483,229L75.517,229C66.953,229 60,233.257 60,238.5C60,243.743 66.953,248 75.517,248L142.483,248C151.047,248 158,243.743 158,238.5Z" style="fill:black;"/>
            </g>
            <g transform="matrix(0.612245,0,0,1,193.765,257)">
                <path d="M158,238.5C158,233.257 151.047,229 142.483,229L75.517,229C66.953,229 60,233.257 60,238.5C60,243.743 66.953,248 75.517,248L142.483,248C151.047,248 158,243.743 158,238.5Z" style="fill:black;"/>
            </g>
            <g transform="matrix(0.612245,0,0,1,193.765,340)">
                <path d="M158,238.5C158,233.257 151.047,229 142.483,229L75.517,229C66.953,229 60,233.257 60,238.5C60,243.743 66.953,248 75.517,248L142.483,248C151.047,248 158,243.743 158,238.5Z" style="fill:black;"/>
            </g>
            <g transform="matrix(0.612245,0,0,1,193.765,426)">
                <path d="M158,238.5C158,233.257 151.047,229 142.483,229L75.517,229C66.953,229 60,233.257 60,238.5C60,243.743 66.953,248 75.517,248L142.483,248C151.047,248 158,243.743 158,238.5Z" style="fill:black;"/>
            </g>
            <g transform="matrix(0.612245,0,0,1,193.765,514)">
                <path d="M158,238.5C158,233.257 151.047,229 142.483,229L75.517,229C66.953,229 60,233.257 60,238.5C60,243.743 66.953,248 75.517,248L142.483,248C151.047,248 158,243.743 158,238.5Z" style="fill:black;"/>
            </g>
            <g transform="matrix(0.612245,0,0,1,193.765,600)">
                <path d="M158,238.5C158,233.257 151.047,229 142.483,229L75.517,229C66.953,229 60,233.257 60,238.5C60,243.743 66.953,248 75.517,248L142.483,248C151.047,248 158,243.743 158,238.5Z" style="fill:black;"/>
            </g>
        </g>
        <g>
            <g transform="matrix(1.45649,0,0,1.1589,-220.966,-53.8191)">
                <rect x="396" y="310" width="194" height="45" style="fill:rgb(3,205,199);"/>
            </g>
            <g transform="matrix(1.45649,0,0,1.1589,-220.966,40.6316)">
                <rect x="396" y="310" width="194" height="45" style="fill:rgb(3,205,199);"/>
            </g>
            <g transform="matrix(1.45649,0,0,1.1589,-220.966,-153.485)">
                <rect x="396" y="310" width="194" height="45" style="fill:rgb(3,205,199);"/>
            </g>
        </g>
    </g>
</svg>
